<svg width="36" height="36" viewBox="0 0 36 36" fill="none" xmlns="http://www.w3.org/2000/svg">
<path d="M26.1 28.875H9.9C7.65 28.875 6.75 27.915 6.75 25.53V23.97C6.75 21.585 7.65 20.625 9.9 20.625H26.1C28.35 20.625 29.25 21.585 29.25 23.97V25.53C29.25 27.915 28.35 28.875 26.1 28.875Z" stroke="white" stroke-width="2" stroke-linecap="round" stroke-linejoin="round"/>
<path d="M23.1 16.125H12.9C10.65 16.125 9.75 15.165 9.75 12.78V11.22C9.75 8.835 10.65 7.875 12.9 7.875H23.1C25.35 7.875 26.25 8.835 26.25 11.22V12.78C26.25 15.165 25.35 16.125 23.1 16.125Z" stroke="white" stroke-width="2" stroke-linecap="round" stroke-linejoin="round"/>
<path d="M18 32.9994V29.3994" stroke="white" stroke-width="2" stroke-linecap="round" stroke-linejoin="round"/>
<path d="M18 19.5V16.5" stroke="white" stroke-width="2" stroke-linecap="round" stroke-linejoin="round"/>
<path d="M18 3V7.035" stroke="white" stroke-width="2" stroke-linecap="round" stroke-linejoin="round"/>
</svg>
