<svg width="27" height="26" viewBox="0 0 27 26" fill="none" xmlns="http://www.w3.org/2000/svg">
<path d="M6.4275 20.0701C6.10206 19.7446 6.07494 19.2339 6.34614 18.8775L6.4275 18.7844L19.2838 5.92811C19.6388 5.57309 20.2144 5.57309 20.5695 5.92811C20.8949 6.25354 20.922 6.76432 20.6508 7.12065L20.5695 7.21374L7.71313 20.0701C7.35811 20.4251 6.78251 20.4251 6.4275 20.0701Z" fill="black"/>
<path d="M9.58115 7.50244C9.07908 7.50352 8.67119 7.09739 8.67011 6.59532C8.66913 6.13889 9.00468 5.7603 9.44292 5.69443L9.57723 5.68428L19.9257 5.662C20.3835 5.66101 20.7627 5.9985 20.8271 6.43821L20.8368 6.57296L20.8153 16.9223C20.8143 17.4244 20.4064 17.8305 19.9044 17.8295C19.4479 17.8286 19.0708 17.4914 19.0068 17.0529L18.9972 16.9185L19.0162 7.48207L9.58115 7.50244Z" fill="black"/>
</svg>
