<svg width="37" height="36" viewBox="0 0 37 36" fill="none" xmlns="http://www.w3.org/2000/svg">
<path d="M10.64 33H26.36C30.5 33 32.15 30.465 32.345 27.375L33.125 14.985C33.335 11.745 30.755 9 27.5 9C26.585 9 25.745 8.475 25.325 7.665L24.245 5.49C23.555 4.125 21.755 3 20.225 3H16.79C15.245 3 13.445 4.125 12.755 5.49L11.675 7.665C11.255 8.475 10.415 9 9.50001 9C6.24501 9 3.66501 11.745 3.87501 14.985L4.65501 27.375C4.83501 30.465 6.50001 33 10.64 33Z" stroke="white" stroke-width="2" stroke-linecap="round" stroke-linejoin="round"/>
<path d="M16.25 12H20.75" stroke="white" stroke-width="2" stroke-linecap="round" stroke-linejoin="round"/>
<path d="M18.5 27C21.185 27 23.375 24.81 23.375 22.125C23.375 19.44 21.185 17.25 18.5 17.25C15.815 17.25 13.625 19.44 13.625 22.125C13.625 24.81 15.815 27 18.5 27Z" stroke="white" stroke-width="2" stroke-linecap="round" stroke-linejoin="round"/>
</svg>
