<svg width="44" height="44" viewBox="0 0 44 44" fill="none" xmlns="http://www.w3.org/2000/svg">
<path d="M28.2154 9.55199L30.8004 14.722C31.1487 15.437 32.0837 16.1153 32.8721 16.262L37.5471 17.032C40.5354 17.527 41.2321 19.6903 39.0871 21.8536L35.4387 25.502C34.8337 26.107 34.4854 27.2986 34.6871 28.1603L35.732 32.6703C36.557 36.227 34.6504 37.6203 31.5154 35.7503L27.1337 33.147C26.3454 32.6703 25.0254 32.6703 24.2371 33.147L19.8554 35.7503C16.7204 37.602 14.8137 36.227 15.6387 32.6703L16.6837 28.1603C16.8854 27.317 16.5371 26.1253 15.9321 25.502L12.2838 21.8536C10.1388 19.7086 10.8354 17.5453 13.8237 17.032L18.4987 16.262C19.2871 16.1336 20.2221 15.437 20.5704 14.722L23.1554 9.55199C24.5304 6.74699 26.8038 6.74699 28.2154 9.55199Z" stroke="white" stroke-width="2.5" stroke-linecap="round" stroke-linejoin="round"/>
<path d="M14.667 9.16699H3.66699" stroke="white" stroke-width="2.5" stroke-linecap="round" stroke-linejoin="round"/>
<path d="M9.16699 34.833H3.66699" stroke="white" stroke-width="2.5" stroke-linecap="round" stroke-linejoin="round"/>
<path d="M5.50033 22H3.66699" stroke="white" stroke-width="2.5" stroke-linecap="round" stroke-linejoin="round"/>
</svg>
