<svg width="37" height="36" viewBox="0 0 37 36" fill="none" xmlns="http://www.w3.org/2000/svg">
<path d="M33.5 22.5V13.5C33.5 6 30.5 3 23 3H14C6.5 3 3.5 6 3.5 13.5V22.5C3.5 30 6.5 33 14 33H23C30.5 33 33.5 30 33.5 22.5Z" stroke="white" stroke-width="2" stroke-linecap="round" stroke-linejoin="round"/>
<path d="M4.28003 10.665H32.72" stroke="white" stroke-width="2" stroke-linecap="round" stroke-linejoin="round"/>
<path d="M13.28 3.16504V10.455" stroke="white" stroke-width="2" stroke-linecap="round" stroke-linejoin="round"/>
<path d="M23.72 3.16504V9.78004" stroke="white" stroke-width="2" stroke-linecap="round" stroke-linejoin="round"/>
<path d="M15.125 21.6752V19.8752C15.125 17.5652 16.76 16.6202 18.755 17.7752L20.315 18.6752L21.875 19.5752C23.87 20.7302 23.87 22.6202 21.875 23.7752L20.315 24.6752L18.755 25.5752C16.76 26.7302 15.125 25.7852 15.125 23.4752V21.6752V21.6752Z" stroke="white" stroke-width="2" stroke-miterlimit="10" stroke-linecap="round" stroke-linejoin="round"/>
</svg>
